<svg width="209" height="209" viewBox="0 0 209 209" fill="none" xmlns="http://www.w3.org/2000/svg">
<path d="M137.761 35.4751C136.126 34.6871 134.467 33.9335 132.754 33.2539C131.04 32.5742 129.315 31.986 127.583 31.4389C113.351 26.9415 98.1146 26.6969 83.7457 30.7362C69.3769 34.7754 56.5008 42.9217 46.6982 54.1752C36.8956 65.4288 30.5931 79.3 28.5644 94.0857C26.5358 108.871 28.8693 123.928 35.2784 137.407C41.6875 150.887 51.8934 162.202 64.643 169.964C77.3927 177.725 92.1312 181.596 107.049 181.101C121.967 180.605 136.415 175.765 148.62 167.174C160.824 158.584 170.253 146.616 175.751 132.741C182.188 116.501 182.883 98.5492 177.72 81.8588" stroke="#0062FF" stroke-width="7"/>
<circle r="7.6643" transform="matrix(-1 0 0 1 78.1058 90.3685)" fill="#0062FF"/>
<circle r="7.6643" transform="matrix(-1 0 0 1 96.9717 89.897)" fill="#0062FF"/>
<circle r="7.6643" transform="matrix(-1 0 0 1 68.8495 107.171)" fill="#0062FF"/>
<path d="M140.917 77.0442L108.496 140.828L87.9301 107.47" stroke="#10E07F" stroke-width="15" stroke-linecap="round" stroke-linejoin="round"/>
<path d="M109.234 133.189L87.3832 106.662" stroke="#10E07F" stroke-width="15" stroke-linecap="round" stroke-linejoin="round"/>
</svg>
